<svg width="386" height="439" viewBox="0 0 386 439" fill="none" xmlns="http://www.w3.org/2000/svg">
<g filter="url(#filter0_d)">
<path fill-rule="evenodd" clip-rule="evenodd" d="M135.344 5.46125C135.619 5.48729 135.821 5.73126 135.795 6.00618C131.143 55.1065 125.603 101.562 103.147 146.625C96.903 159.155 85.5347 178.856 71.0954 195.392C82.9678 201.05 92.0238 211.419 101.1 222.087C110.366 232.979 118.974 244.657 127.59 256.345C130.351 260.09 133.112 263.836 135.896 267.557C147.378 282.906 159.258 297.856 173.109 310.697C184.441 321.203 202.343 327.198 220.966 328.976C224.376 329.302 227.808 329.486 231.223 329.53C229.209 319.309 228.121 308.248 229.209 298.352C230.168 289.633 232.822 281.759 238.081 276.171C243.355 270.566 251.188 267.325 262.355 267.761C281.264 268.501 293.018 278.188 295.472 289.867C297.929 301.556 291.01 314.941 273.203 322.944C261.948 328.003 247.367 330.59 232.447 330.54C233.94 337.807 235.887 344.61 237.827 350.2C249.104 382.704 269.243 402.061 294.157 413.306C318.965 424.504 348.532 427.669 378.848 427.701C377.469 426.424 375.976 424.855 374.669 423.481L374.669 423.481L374.66 423.472C374.132 422.917 373.634 422.394 373.187 421.936C372.994 421.738 372.998 421.421 373.196 421.229C373.394 421.036 373.71 421.04 373.903 421.237C374.373 421.719 374.887 422.26 375.428 422.828C377.039 424.521 378.881 426.456 380.457 427.793C380.535 427.86 380.588 427.947 380.614 428.039C380.658 428.194 380.626 428.366 380.514 428.498C380.499 428.516 380.482 428.534 380.463 428.55C380.445 428.566 380.427 428.58 380.407 428.593C379.737 429.051 378.966 429.639 378.141 430.268L378.139 430.27C377.97 430.399 377.798 430.53 377.625 430.661C377.5 430.756 377.374 430.852 377.247 430.948C376.097 431.816 374.887 432.696 373.791 433.316C373.551 433.452 373.246 433.367 373.11 433.127C372.974 432.886 373.058 432.581 373.299 432.445C374.331 431.861 375.494 431.018 376.644 430.15C376.835 430.006 377.025 429.861 377.215 429.717C377.314 429.641 377.414 429.565 377.513 429.489L377.516 429.487C377.869 429.218 378.217 428.953 378.553 428.7C348.29 428.648 318.666 425.466 293.745 414.218C268.591 402.864 248.252 383.301 236.882 350.527C234.915 344.859 232.935 337.936 231.425 330.533C227.909 330.493 224.378 330.306 220.871 329.972C202.134 328.182 183.985 322.144 172.429 311.431C158.508 298.525 146.584 283.514 135.095 268.156C132.301 264.422 129.534 260.667 126.77 256.918L126.77 256.917L126.769 256.916C118.158 245.235 109.579 233.597 100.339 222.735C91.1701 211.958 82.1678 201.689 70.409 196.174C69.5102 197.19 68.5997 198.193 67.6781 199.182C51.6438 216.377 32.089 229.137 11.643 224.116C8.69693 223.392 6.95089 220.922 6.10758 218.166C5.26393 215.409 5.2824 212.253 5.95047 209.935C6.95678 206.442 9.67258 203.535 13.2547 201.143C16.8422 198.748 21.3514 196.832 26.043 195.34C35.4236 192.357 45.6328 191.034 50.9053 190.99C58.1622 190.928 64.4778 192.404 70.1498 194.955C84.602 178.463 95.9999 158.725 102.252 146.179C124.616 101.301 130.147 55.0152 134.799 5.91186C134.825 5.63695 135.069 5.4352 135.344 5.46125ZM69.4569 195.74C63.9724 193.319 57.8865 191.931 50.9138 191.99C45.7442 192.033 35.6342 193.339 26.3461 196.293C21.7034 197.77 17.2908 199.651 13.8101 201.975C10.3241 204.303 7.82523 207.04 6.91138 210.212C6.2985 212.339 6.27526 215.296 7.06382 217.874C7.85272 220.452 9.41284 222.538 11.8815 223.144C31.7557 228.026 50.9515 215.653 66.9467 198.5C67.793 197.592 68.6298 196.672 69.4569 195.74ZM232.245 329.54C247.122 329.613 261.641 327.045 272.793 322.032C290.319 314.155 296.824 301.16 294.493 290.073C292.161 278.975 280.917 269.488 262.316 268.761C251.376 268.333 243.847 271.503 238.809 276.856C233.757 282.226 231.149 289.857 230.203 298.461C229.121 308.302 230.22 319.34 232.245 329.54Z" fill="#FF1E1E"/>
</g>
<defs>
<filter id="filter0_d" x="0.460938" y="0.458984" width="385.172" height="437.922" filterUnits="userSpaceOnUse" color-interpolation-filters="sRGB">
<feFlood flood-opacity="0" result="BackgroundImageFix"/>
<feColorMatrix in="SourceAlpha" type="matrix" values="0 0 0 0 0 0 0 0 0 0 0 0 0 0 0 0 0 0 127 0"/>
<feOffset/>
<feGaussianBlur stdDeviation="2.5"/>
<feColorMatrix type="matrix" values="0 0 0 0 1 0 0 0 0 0.117647 0 0 0 0 0.117647 0 0 0 1 0"/>
<feBlend mode="normal" in2="BackgroundImageFix" result="effect1_dropShadow"/>
<feBlend mode="normal" in="SourceGraphic" in2="effect1_dropShadow" result="shape"/>
</filter>
</defs>
</svg>
