<svg width="41" height="41" viewBox="0 0 41 41" fill="none" xmlns="http://www.w3.org/2000/svg">
<path d="M20.5 41C31.8218 41 41 31.8218 41 20.5C41 9.17816 31.8218 0 20.5 0C9.17816 0 0 9.17816 0 20.5C0 31.8218 9.17816 41 20.5 41Z" fill="#ACA9A9"/>
<path d="M20.4966 35.1301C12.4273 35.1301 5.86328 28.5644 5.86328 20.4968C5.86328 12.4292 12.4273 5.86523 20.4966 5.86523C28.5659 5.86523 35.1299 12.431 35.1299 20.4986C35.1299 28.5661 28.5659 35.1301 20.4966 35.1301Z" fill="#E7E7E7"/>
<path d="M25.9667 28.2529H13.9303V25.3034L17.9802 21.2081C19.1374 19.998 19.8937 19.1736 20.2491 18.735C20.6046 18.2888 20.8504 17.9068 20.9865 17.5892C21.1302 17.2715 21.2021 16.9388 21.2021 16.5909C21.2021 16.1598 21.0621 15.8195 20.7823 15.5699C20.5025 15.3203 20.1092 15.1955 19.6025 15.1955C19.0806 15.1955 18.5512 15.3468 18.0143 15.6493C17.4849 15.9443 16.8836 16.3829 16.2105 16.9653L13.7488 14.0838C14.6034 13.3199 15.3219 12.7754 15.9042 12.4502C16.4866 12.1174 17.1181 11.8641 17.7987 11.6901C18.487 11.5162 19.2584 11.4292 20.113 11.4292C21.1869 11.4292 22.1436 11.6183 22.9831 11.9964C23.8302 12.3745 24.4844 12.9153 24.9457 13.6187C25.4146 14.3144 25.6491 15.0972 25.6491 15.9669C25.6491 16.6174 25.5659 17.2186 25.3995 17.7707C25.2407 18.3228 24.9911 18.8673 24.6507 19.4043C24.3104 19.9337 23.8566 20.4934 23.2894 21.0833C22.7298 21.6732 21.531 22.7925 19.6932 24.4412V24.5547H25.9667V28.2529Z" fill="#ACA9A9"/>
</svg>
