<svg width="41" height="41" viewBox="0 0 41 41" fill="none" xmlns="http://www.w3.org/2000/svg">
<path d="M20.5 41C31.8218 41 41 31.8218 41 20.5C41 9.17816 31.8218 0 20.5 0C9.17816 0 0 9.17816 0 20.5C0 31.8218 9.17816 41 20.5 41Z" fill="#DA7125"/>
<path d="M20.4966 35.1301C12.4273 35.1301 5.86328 28.5644 5.86328 20.4968C5.86328 12.4292 12.4273 5.86523 20.4966 5.86523C28.5659 5.86523 35.1299 12.431 35.1299 20.4986C35.1299 28.5661 28.5659 35.1301 20.4966 35.1301Z" fill="#FFB47D"/>
<path d="M25.4108 15.2636C25.4108 16.2921 25.097 17.177 24.4692 17.9182C23.8415 18.6518 22.934 19.185 21.7466 19.5177V19.5858C24.5146 19.9337 25.8986 21.2421 25.8986 23.511C25.8986 25.0538 25.286 26.2677 24.0608 27.1525C22.8432 28.0374 21.1491 28.4798 18.9785 28.4798C18.0861 28.4798 17.258 28.4155 16.4941 28.287C15.7378 28.1584 14.9173 27.9239 14.0324 27.5836V23.8626C14.7584 24.2332 15.4958 24.5093 16.2445 24.6908C17.0008 24.8647 17.6966 24.9517 18.3319 24.9517C19.3151 24.9517 20.0298 24.8156 20.476 24.5433C20.9298 24.2635 21.1567 23.8286 21.1567 23.2387C21.1567 22.7849 21.0394 22.437 20.805 22.195C20.5705 21.9454 20.1924 21.7602 19.6706 21.6391C19.1487 21.5106 18.4681 21.4463 17.6286 21.4463H16.6076V18.077H17.6513C19.9277 18.077 21.0659 17.4947 21.0659 16.33C21.0659 15.8913 20.8958 15.5661 20.5554 15.3543C20.2227 15.1426 19.7727 15.0367 19.2054 15.0367C18.1466 15.0367 17.05 15.3922 15.9156 16.1031L14.0551 13.1082C14.9324 12.5031 15.8286 12.072 16.7437 11.8149C17.6664 11.5578 18.7214 11.4292 19.9088 11.4292C21.6256 11.4292 22.9718 11.7695 23.9474 12.4502C24.923 13.1308 25.4108 14.0686 25.4108 15.2636Z" fill="#DA7125"/>
</svg>
