<svg width="210" height="239" viewBox="0 0 210 239" fill="none" xmlns="http://www.w3.org/2000/svg">
<g filter="url(#filter0_d)">
<path fill-rule="evenodd" clip-rule="evenodd" d="M74.4738 5.69369C74.7487 5.71974 74.9505 5.96371 74.9245 6.23862C72.4533 32.3233 69.5078 57.0437 57.5563 81.0269C54.2634 87.6348 48.2902 97.9956 40.6965 106.754C46.9237 109.814 51.6917 115.283 56.4376 120.861C61.3662 126.654 65.946 132.867 70.5246 139.079L70.5246 139.079L70.5258 139.08C71.9911 141.068 73.4562 143.056 74.9325 145.029C81.0309 153.181 87.3317 161.11 94.674 167.917C100.642 173.449 110.095 176.624 119.962 177.566C121.672 177.729 123.391 177.825 125.104 177.855C124.066 172.486 123.515 166.698 124.086 161.504C124.598 156.845 126.02 152.605 128.862 149.585C131.719 146.548 135.951 144.81 141.937 145.044C152.055 145.44 158.419 150.633 159.752 156.974C161.086 163.325 157.313 170.527 147.787 174.809C141.845 177.48 134.18 178.858 126.327 178.865C127.11 182.606 128.115 186.107 129.118 188.998C135.088 206.203 145.74 216.439 158.92 222.387C171.894 228.244 187.341 229.955 203.229 230.013C202.615 229.417 201.982 228.752 201.419 228.16L201.419 228.16C201.139 227.866 200.877 227.59 200.642 227.349C200.449 227.152 200.453 226.835 200.651 226.642C200.849 226.449 201.165 226.453 201.358 226.651C201.612 226.912 201.889 227.202 202.179 227.507L202.179 227.507L202.179 227.507C203.03 228.401 203.99 229.411 204.815 230.112C204.835 230.128 204.854 230.146 204.872 230.165C204.902 230.199 204.927 230.236 204.946 230.275C205.03 230.44 205.017 230.645 204.9 230.8C204.881 230.825 204.86 230.848 204.837 230.87C204.817 230.888 204.795 230.905 204.773 230.919C204.423 231.159 204.022 231.465 203.587 231.796C203.504 231.86 203.419 231.925 203.332 231.99C203.258 232.046 203.184 232.103 203.108 232.16C202.497 232.622 201.843 233.097 201.246 233.435C201.006 233.571 200.701 233.487 200.565 233.246C200.429 233.006 200.513 232.701 200.754 232.565C201.288 232.263 201.894 231.824 202.505 231.362C202.654 231.25 202.803 231.136 202.951 231.024L202.962 231.016L202.962 231.016C202.963 231.014 202.965 231.013 202.967 231.012C187.118 230.937 171.602 229.209 158.508 223.299C145.088 217.241 134.236 206.801 128.174 189.326C127.143 186.356 126.105 182.735 125.304 178.858C123.492 178.833 121.673 178.734 119.867 178.562C109.886 177.608 100.186 174.39 93.9942 168.65C86.5823 161.778 80.2371 153.79 74.1318 145.628C72.6453 143.641 71.1736 141.645 69.7043 139.651C65.1306 133.447 60.5798 127.273 55.676 121.509C50.8407 115.826 46.1258 110.454 40.0127 107.533C39.5718 108.029 39.1256 108.52 38.6745 109.004C30.1468 118.149 19.6739 125.019 8.67763 122.318C7.00059 121.906 6.02941 120.504 5.56864 118.998C5.10752 117.491 5.11622 115.769 5.48408 114.492C6.04036 112.561 7.53402 110.977 9.45964 109.691C11.3906 108.402 13.8088 107.376 16.3127 106.58C21.318 104.988 26.7651 104.282 29.5903 104.258C33.4164 104.225 36.7543 104.99 39.7536 106.314C47.3591 97.6002 53.3607 87.2042 56.6613 80.5809C68.5211 56.7818 71.4575 32.2319 73.9289 6.14431C73.955 5.8694 74.1989 5.66765 74.4738 5.69369ZM39.0574 107.102C36.2476 105.907 33.1405 105.228 29.5987 105.258C26.8764 105.281 21.5286 105.97 16.6158 107.533C14.1607 108.314 11.8391 109.305 10.015 110.523C8.18551 111.745 6.90881 113.159 6.44498 114.769C6.13231 115.854 6.11885 117.379 6.52488 118.706C6.93124 120.034 7.7165 121.052 8.91615 121.347C19.3406 123.907 29.4545 117.425 37.9431 108.322C38.3181 107.92 38.6895 107.513 39.0574 107.102ZM126.124 177.865C133.934 177.881 141.537 176.522 147.377 173.897C156.623 169.741 159.981 162.929 158.773 157.179C157.562 151.42 151.708 146.427 141.898 146.043C136.14 145.818 132.211 147.485 129.59 150.27C126.954 153.072 125.58 157.069 125.08 161.613C124.515 166.753 125.076 172.517 126.124 177.865Z" fill="#FF1E1E"/>
</g>
<defs>
<filter id="filter0_d" x="0.214844" y="0.691406" width="209.785" height="237.809" filterUnits="userSpaceOnUse" color-interpolation-filters="sRGB">
<feFlood flood-opacity="0" result="BackgroundImageFix"/>
<feColorMatrix in="SourceAlpha" type="matrix" values="0 0 0 0 0 0 0 0 0 0 0 0 0 0 0 0 0 0 127 0"/>
<feOffset/>
<feGaussianBlur stdDeviation="2.5"/>
<feColorMatrix type="matrix" values="0 0 0 0 1 0 0 0 0 0.117647 0 0 0 0 0.117647 0 0 0 1 0"/>
<feBlend mode="normal" in2="BackgroundImageFix" result="effect1_dropShadow"/>
<feBlend mode="normal" in="SourceGraphic" in2="effect1_dropShadow" result="shape"/>
</filter>
</defs>
</svg>
